<?xml version="1.0" standalone="no"?>
<!DOCTYPE svg PUBLIC "-//W3C//DTD SVG 20010904//EN"
 "http://www.w3.org/TR/2001/REC-SVG-20010904/DTD/svg10.dtd">
<svg version="1.0" xmlns="http://www.w3.org/2000/svg"
 width="1024.000000pt" height="786.000000pt" viewBox="0 0 1024.000000 786.000000"
 preserveAspectRatio="xMidYMid meet">

<g transform="translate(0.000000,786.000000) scale(0.100000,-0.100000)"
fill="#000000" stroke="none">
<path d="M4425 7629 c-17 -4 -42 -21 -56 -36 -29 -31 -4125 -7127 -4141 -7174
-14 -40 -2 -92 29 -129 53 -63 -3 -60 966 -60 l885 0 -14 37 c-17 49 -18 168
-1 224 8 24 748 1317 1646 2873 898 1556 1635 2835 1637 2841 4 9 -710 1261
-782 1373 -17 26 -87 62 -119 61 -11 0 -34 -5 -50 -10z"/>
<path d="M5747 6352 c-17 -10 -54 -60 -91 -122 -34 -58 -802 -1387 -1707
-2955 -1545 -2678 -1644 -2853 -1644 -2897 0 -53 22 -89 75 -125 l33 -23 903
0 902 0 -14 47 c-18 60 -18 146 1 209 8 27 576 1022 1280 2242 l1265 2193
-407 705 c-323 558 -414 709 -439 724 -40 25 -118 26 -157 2z"/>
</g>
</svg>
