<?xml version="1.0" standalone="no"?>
<!DOCTYPE svg PUBLIC "-//W3C//DTD SVG 20010904//EN"
 "http://www.w3.org/TR/2001/REC-SVG-20010904/DTD/svg10.dtd">
<svg version="1.0" xmlns="http://www.w3.org/2000/svg"
 width="1024.000000pt" height="1024.000000pt" viewBox="0 0 1024.000000 1024.000000"
 preserveAspectRatio="xMidYMid meet">

<g transform="translate(0.000000,1024.000000) scale(0.100000,-0.100000)"
fill="#000000" stroke="none">
<path d="M4885 10049 c-1113 -58 -2139 -468 -2985 -1194 -135 -115 -400 -380
-515 -515 -464 -541 -801 -1157 -999 -1830 -309 -1051 -258 -2189 144 -3201
244 -613 594 -1153 1055 -1628 1178 -1214 2886 -1738 4539 -1395 1044 218
1986 766 2696 1569 1343 1521 1619 3689 700 5500 -454 893 -1205 1658 -2085
2122 -672 354 -1337 534 -2110 573 -219 11 -210 11 -440 -1z m405 -459 l0 -50
-75 0 -75 0 0 -240 0 -240 -53 0 -54 0 -6 143 c-4 78 -7 185 -7 237 l0 95 -72
0 -73 0 -3 53 -3 52 210 0 211 0 0 -50z m-545 18 c7 -36 53 -552 49 -557 -2
-2 -28 -6 -58 -9 l-54 -4 -6 43 c-8 62 -46 483 -46 513 0 23 5 25 48 29 26 2
50 4 54 5 4 1 10 -8 13 -20z m864 3 c10 -7 81 -266 155 -563 6 -27 6 -28 -39
-28 -66 0 -83 12 -90 64 -8 50 -3 48 -145 61 l-65 6 -19 -45 -19 -46 -51 0
c-28 0 -56 4 -62 8 -8 5 19 71 85 207 54 110 112 233 131 273 32 70 34 72 69
72 20 0 42 -4 50 -9z m451 -84 c0 -11 -11 -70 -25 -131 -14 -61 -36 -157 -48
-213 -21 -92 -22 -103 -8 -108 9 -2 50 -12 91 -20 41 -9 91 -20 111 -25 l36
-10 -11 -50 c-5 -27 -15 -50 -20 -50 -22 0 -347 77 -353 84 -6 6 24 157 67
336 10 41 25 109 34 151 l17 75 54 -9 c45 -8 55 -14 55 -30z m-1820 -18 c7
-27 11 -51 9 -53 -2 -2 -56 -16 -119 -31 -63 -15 -119 -31 -123 -35 -9 -8 12
-120 22 -120 3 0 53 12 110 26 57 14 104 24 106 22 8 -11 23 -94 17 -99 -4 -4
-50 -17 -102 -29 -52 -12 -98 -24 -101 -26 -8 -4 14 -111 25 -121 5 -6 201 38
241 53 9 4 17 -7 24 -33 20 -70 26 -66 -158 -111 -157 -39 -201 -48 -201 -38
0 2 -29 120 -65 262 -36 143 -65 266 -65 275 0 13 38 26 178 62 97 25 180 46
184 46 3 1 11 -22 18 -50z m2263 -85 c26 -9 47 -21 47 -28 0 -7 -9 -39 -19
-72 -11 -32 -48 -147 -82 -254 -34 -107 -65 -199 -69 -203 -8 -9 -87 10 -103
24 -5 4 27 119 71 255 44 137 83 259 87 272 8 26 9 26 68 6z m-2727 -284 c57
-145 101 -267 97 -270 -5 -4 -26 -14 -49 -23 l-40 -15 -135 96 c-73 54 -148
107 -166 120 l-31 22 59 -152 c33 -83 58 -157 55 -163 -4 -11 -94 -50 -100
-44 -5 6 -198 501 -203 521 -4 12 6 21 32 32 21 9 44 16 52 16 8 0 84 -50 169
-111 86 -61 157 -109 159 -108 1 2 -24 71 -56 153 -32 82 -58 151 -56 152 8 8
93 42 101 40 5 -1 55 -121 112 -266z m3128 135 c35 -15 36 -17 36 -69 0 -63
-30 -559 -34 -563 -2 -2 -26 7 -54 19 l-52 23 0 56 0 56 -84 36 c-47 20 -88
37 -91 37 -3 0 -19 -16 -36 -35 -36 -41 -41 -42 -103 -14 l-47 20 28 33 c48
58 388 416 394 416 4 0 23 -7 43 -15z m395 -191 c48 -31 51 -44 52 -228 2
-222 0 -221 97 -56 46 77 85 140 86 140 11 0 96 -53 96 -60 0 -11 -268 -460
-285 -479 -11 -11 -19 -10 -53 9 -38 21 -40 25 -46 83 -3 33 -6 125 -6 204 0
80 -4 142 -9 139 -5 -3 -44 -65 -86 -137 -43 -72 -84 -133 -91 -136 -12 -5
-94 42 -94 54 0 9 291 493 296 493 3 0 22 -12 43 -26z m-4204 1 c20 -8 49 -29
66 -47 37 -41 113 -174 135 -236 31 -92 -9 -191 -99 -242 -100 -57 -219 -33
-279 57 -47 71 -106 188 -118 231 -23 89 37 195 134 238 41 18 118 18 161 -1z
m-336 -451 c90 -130 159 -239 155 -243 -45 -37 -87 -62 -93 -55 -15 17 -321
463 -321 468 0 6 82 66 90 66 3 0 79 -106 169 -236z m-351 63 c31 -33 37 -59
62 -278 13 -107 26 -197 29 -201 3 -3 46 28 96 69 l89 75 33 -38 c18 -22 32
-42 30 -45 -3 -10 -281 -238 -289 -239 -5 0 -21 17 -36 39 -26 36 -30 54 -52
242 -12 112 -26 210 -29 216 -5 9 -34 -10 -91 -57 l-85 -71 -33 36 c-18 20
-32 40 -30 45 4 11 268 230 278 230 3 0 16 -11 28 -23z m5541 -54 l30 -28 -96
-285 c-53 -157 -97 -287 -99 -288 -4 -5 -27 9 -64 41 l-33 29 17 49 18 49 -33
27 c-72 61 -114 93 -124 93 -6 0 -27 -12 -48 -26 l-38 -25 -49 37 c-28 21 -47
41 -42 45 4 3 95 59 202 124 107 65 220 133 250 151 30 19 60 34 67 34 7 0 26
-12 42 -27z m-5925 -435 c78 -34 200 -87 271 -118 72 -32 130 -62 130 -67 0
-5 -15 -27 -33 -47 l-33 -38 -51 21 -52 21 -67 -72 -67 -73 24 -46 23 -46 -35
-42 c-20 -22 -40 -41 -45 -41 -6 0 -70 123 -143 273 l-134 272 31 33 c17 17
33 32 36 32 2 0 68 -28 145 -62z m6559 -183 l28 -33 -153 -266 c-84 -146 -156
-265 -159 -264 -4 2 -23 22 -43 46 l-36 44 25 36 c14 20 25 43 25 50 0 8 -26
44 -57 80 -32 37 -58 69 -60 71 -1 2 -25 -5 -53 -15 l-51 -18 -33 39 c-19 22
-35 44 -37 49 -4 7 540 213 566 214 6 0 22 -14 38 -33z m-6754 -243 c122 -96
221 -176 221 -179 0 -3 -16 -25 -35 -49 l-36 -43 -222 176 c-122 96 -221 181
-221 188 2 16 57 86 66 82 3 -1 106 -80 227 -175z m7058 -164 c79 -122 99
-179 83 -237 -27 -103 -146 -162 -233 -116 -27 14 -28 13 -50 -23 -13 -20 -40
-68 -62 -107 -57 -105 -54 -104 -92 -44 -18 29 -33 57 -33 63 0 5 27 53 60
107 33 53 60 104 60 112 0 8 -8 25 -18 37 l-19 23 -74 -48 c-41 -26 -84 -54
-95 -62 -21 -13 -24 -11 -53 37 l-31 50 127 83 c70 45 177 114 238 154 60 39
114 72 118 72 4 1 38 -45 74 -101z m-7344 63 c21 -5 41 -11 43 -14 3 -3 -8
-27 -25 -53 -28 -46 -32 -48 -70 -45 -32 2 -46 -3 -65 -22 -34 -34 -43 -74
-25 -106 29 -52 201 -161 254 -161 38 0 85 50 85 90 0 17 -7 41 -16 55 -14 22
-14 26 12 67 16 24 29 44 30 46 6 12 36 -18 58 -57 64 -119 -3 -273 -137 -310
-64 -18 -100 -9 -202 52 -118 70 -180 129 -195 187 -35 130 67 272 200 279 8
0 32 -3 53 -8z m3917 -1025 l0 -925 43 -5 c218 -27 377 -50 451 -67 49 -11 90
-18 91 -17 2 3 245 666 546 1493 62 171 115 313 118 317 3 3 56 -2 116 -13
260 -46 451 -83 457 -88 4 -4 19 -38 33 -76 14 -39 285 -785 603 -1660 l579
-1590 -355 -3 -354 -2 -41 47 c-86 100 -216 229 -331 326 -546 469 -1178 746
-1896 834 -200 24 -600 24 -800 0 -802 -98 -1527 -450 -2086 -1012 -66 -67
-133 -138 -148 -158 l-28 -37 -354 0 c-195 0 -354 4 -354 8 0 5 66 188 146
408 80 219 153 422 163 449 50 138 200 551 289 795 290 800 605 1665 608 1669
10 12 572 112 578 102 2 -3 90 -242 196 -531 105 -289 209 -572 230 -630 21
-58 80 -217 130 -355 114 -314 106 -297 128 -291 60 18 288 54 520 82 l42 5 0
918 c0 505 3 921 7 924 3 4 156 7 340 7 l333 0 0 -924z m3787 269 c4 -41 0
-57 -19 -85 -43 -63 -121 -94 -182 -70 -23 8 -26 6 -36 -25 -23 -70 -118 -118
-191 -96 -63 19 -87 47 -149 177 -33 69 -60 131 -60 138 0 8 112 66 258 135
l257 121 59 -122 c41 -84 61 -139 63 -173z m-7941 259 c172 -71 245 -122 268
-191 20 -58 20 -89 1 -142 -35 -99 -115 -157 -208 -149 -56 5 -224 78 -285
125 -114 87 -85 284 53 356 39 21 122 21 171 1z m-331 -513 l18 -40 -31 -35
c-17 -20 -37 -54 -43 -76 -11 -36 -10 -44 8 -68 42 -57 85 -37 135 62 16 32
40 69 53 82 71 71 212 37 264 -63 18 -36 13 -137 -10 -199 -22 -59 -95 -144
-124 -144 -8 0 -25 19 -36 43 l-21 43 34 34 c45 45 75 122 62 158 -5 15 -22
33 -37 40 -40 19 -68 -2 -109 -84 -37 -74 -78 -112 -131 -121 -68 -11 -156 39
-183 104 -34 79 -6 190 66 265 27 27 52 48 57 45 5 -4 18 -24 28 -46z m8417
-78 c2 -13 -46 -34 -257 -110 -143 -51 -265 -93 -272 -93 -16 0 -29 26 -38 71
l-7 36 109 39 c59 21 180 64 268 95 l160 57 17 -39 c9 -21 18 -46 20 -56z
m105 -343 l51 -200 -46 -14 c-26 -7 -50 -12 -53 -10 -4 2 -14 35 -24 73 l-17
69 -226 -59 c-125 -32 -229 -55 -233 -51 -11 13 -28 97 -21 104 4 3 107 32
228 63 l221 57 -18 71 c-10 39 -17 72 -16 73 9 6 66 23 82 23 18 1 26 -22 72
-199z m-8679 -73 l30 -42 -24 -28 c-28 -33 -48 -99 -38 -130 11 -36 25 -47 59
-47 38 0 53 19 80 98 33 102 101 151 190 138 127 -19 184 -154 129 -306 -20
-55 -77 -130 -98 -130 -8 0 -25 18 -40 41 l-27 40 30 34 c72 82 64 205 -14
205 -34 0 -58 -30 -79 -96 -26 -82 -78 -134 -139 -141 -64 -7 -129 18 -164 64
-56 73 -38 224 34 304 20 22 37 39 39 39 2 0 16 -19 32 -43z m8775 -409 c19
-149 15 -185 -30 -238 -36 -43 -74 -60 -135 -60 -55 0 -98 20 -128 60 -15 20
-17 19 -122 -55 -59 -41 -112 -75 -118 -75 -5 0 -10 8 -10 19 0 10 -3 38 -6
63 l-6 44 106 70 c105 68 106 69 102 103 -3 18 -7 35 -9 37 -2 2 -52 -1 -110
-8 -59 -6 -109 -9 -111 -7 -2 2 -7 27 -11 56 -6 49 -5 52 17 57 50 10 475 64
514 65 l41 1 16 -132z m-8387 -99 c-3 -17 -6 -44 -6 -59 0 -25 -5 -29 -39 -35
-62 -10 -68 -20 -76 -123 l-7 -92 46 -20 46 -19 0 -61 c0 -33 -4 -60 -8 -60
-5 0 -129 56 -278 124 l-269 123 -3 43 c-2 24 0 46 5 51 4 4 109 36 233 70
124 34 245 67 270 74 25 7 56 14 69 14 21 1 23 -2 17 -30z m8429 -373 c4 -18
5 -44 3 -57 l-3 -24 -283 -9 c-156 -4 -285 -6 -288 -3 -6 6 -18 107 -13 108
11 4 320 16 441 17 l137 2 6 -34z m-4203 -401 l28 -7 2 -419 3 -418 141 387
c114 311 146 388 161 390 41 6 310 -88 484 -170 97 -45 109 -53 103 -72 -4
-12 -48 -142 -99 -291 l-92 -270 -1040 -3 -1041 -2 -20 57 c-69 187 -173 515
-169 526 12 32 450 205 562 223 l40 6 22 -64 c11 -34 33 -94 47 -133 15 -38
68 -184 119 -324 l92 -255 3 417 2 416 43 5 c23 3 53 8 67 10 38 7 511 -2 542
-9z m-4531 -345 c59 -309 162 -654 287 -955 70 -169 238 -494 335 -650 407
-648 934 -1163 1595 -1557 122 -72 418 -224 534 -273 37 -16 65 -31 63 -33 -2
-3 -64 15 -137 38 -988 313 -1847 1063 -2318 2025 -237 483 -366 976 -394
1505 -5 104 -3 99 35 -100z m8475 68 c-39 -625 -224 -1216 -555 -1770 -456
-765 -1191 -1380 -2000 -1674 -129 -47 -313 -105 -318 -101 -1 2 37 20 85 40
48 21 157 72 242 115 1286 651 2174 1790 2483 3187 19 88 41 195 48 238 7 42
15 77 17 77 3 0 1 -51 -2 -112z m-3226 -2072 l0 -834 -32 -11 c-433 -134 -979
-177 -1468 -115 -126 15 -389 69 -510 103 l-65 18 -3 837 -2 836 1040 0 1040
0 0 -834z m-1581 -1380 c90 -14 165 -26 166 -28 2 -2 1 -24 -2 -50 -7 -56 -5
-56 -133 -33 -138 24 -132 27 -144 -66 l-7 -45 93 -13 c133 -18 127 -15 121
-64 -3 -23 -8 -45 -12 -49 -3 -4 -49 -1 -101 7 -52 8 -100 15 -106 15 -7 0
-17 -39 -24 -99 -7 -55 -16 -105 -20 -111 -10 -16 -110 -2 -110 16 0 15 69
490 76 522 6 27 3 27 203 -2z m1238 -7 c53 -20 130 -115 109 -136 -3 -3 -27
-9 -52 -13 -45 -7 -49 -6 -77 26 -39 45 -86 47 -128 5 -33 -33 -35 -49 -18
-168 13 -96 29 -136 64 -159 22 -15 31 -15 67 -5 33 10 43 20 57 52 11 28 22
39 37 39 12 0 36 3 53 6 29 6 31 5 31 -25 0 -47 -22 -92 -63 -128 -99 -87
-265 -62 -322 48 -25 47 -47 187 -44 272 4 72 8 87 32 119 39 50 98 78 169 78
31 0 69 -5 85 -11z m-887 -36 c6 -8 -11 -353 -25 -490 l-7 -63 -54 0 -54 0 0
43 c0 23 7 141 15 262 8 121 15 231 15 244 0 23 2 24 52 18 28 -4 54 -10 58
-14z m410 -15 c48 -24 97 -86 102 -128 3 -24 0 -25 -52 -27 -52 -3 -56 -1 -75
29 -23 37 -60 54 -99 44 -64 -16 -83 -76 -71 -223 6 -77 10 -90 35 -115 31
-30 63 -35 105 -16 29 13 55 55 55 88 0 17 -6 20 -50 20 -44 0 -50 3 -56 24
-3 13 -4 35 -2 47 3 23 6 24 111 27 l107 3 0 -85 c0 -47 -5 -97 -11 -113 -26
-71 -110 -122 -197 -123 -99 0 -172 49 -197 134 -18 59 -20 270 -4 313 39 105
191 156 299 101z"/>
<path d="M5513 9340 l-40 -88 30 -6 c31 -6 97 -8 97 -3 0 10 -39 179 -42 182
-2 2 -22 -36 -45 -85z"/>
<path d="M6761 9029 c-35 -38 -61 -72 -58 -75 14 -14 107 -52 111 -46 5 9 20
192 15 191 -2 0 -33 -32 -68 -70z"/>
<path d="M2939 8961 c-40 -41 -37 -68 19 -174 59 -112 90 -147 131 -147 69 0
109 47 97 112 -7 39 -98 196 -127 221 -33 27 -86 22 -120 -12z"/>
<path d="M7741 8448 l-84 -52 44 -38 c24 -21 49 -38 54 -38 6 0 25 41 42 90
18 50 31 90 30 90 -1 0 -40 -24 -86 -52z"/>
<path d="M2020 8031 c22 -44 43 -82 48 -85 5 -3 28 15 52 39 l43 44 -88 40
c-48 23 -89 41 -92 41 -2 0 15 -36 37 -79z"/>
<path d="M8338 7868 c-43 -17 -78 -36 -78 -42 1 -18 68 -89 78 -82 10 6 92
140 92 150 0 9 -9 6 -92 -26z"/>
<path d="M8723 7523 l-52 -35 27 -42 c44 -69 53 -76 92 -76 43 0 70 24 70 63
0 31 -56 127 -73 126 -7 0 -35 -16 -64 -36z"/>
<path d="M3266 6389 c-35 -96 -69 -194 -141 -404 -156 -451 -196 -568 -261
-753 -35 -101 -64 -185 -64 -188 0 -3 26 13 58 35 153 104 452 261 650 341 45
19 82 38 82 42 0 5 -54 169 -121 366 -66 196 -136 404 -156 462 -38 115 -40
119 -47 99z"/>
<path d="M6960 6375 c-6 -16 -66 -190 -131 -385 -66 -195 -133 -392 -149 -438
-17 -46 -30 -87 -30 -92 0 -5 17 -14 37 -21 126 -41 464 -213 652 -331 51 -32
95 -57 97 -55 2 1 -19 68 -47 147 -28 80 -126 366 -219 635 -93 270 -176 508
-184 530 l-14 40 -12 -30z"/>
<path d="M9018 7038 c-27 -11 -48 -23 -47 -27 2 -26 59 -119 80 -130 24 -13
30 -13 53 2 18 12 26 26 26 46 0 36 -39 131 -54 131 -6 -1 -32 -10 -58 -22z"/>
<path d="M8808 6939 c-32 -16 -58 -32 -58 -34 0 -3 14 -33 30 -66 36 -70 65
-87 110 -64 44 23 46 51 10 128 -18 37 -33 67 -33 67 -1 -1 -28 -14 -59 -31z"/>
<path d="M1171 7076 c-52 -29 -66 -98 -28 -140 32 -36 183 -108 238 -114 41
-4 48 -1 72 28 58 68 27 120 -106 184 -108 52 -143 60 -176 42z"/>
<path d="M9377 5763 l-37 -4 6 -42 c13 -101 29 -127 75 -127 65 0 82 28 72
120 l-6 60 -36 -2 c-20 -1 -53 -3 -74 -5z"/>
<path d="M882 5510 c-40 -9 -75 -19 -77 -22 -3 -3 33 -22 80 -43 47 -21 88
-36 90 -33 2 2 7 30 11 61 8 67 12 65 -104 37z"/>
</g>
</svg>
