<?xml version="1.0" encoding="UTF-8"?> <svg xmlns="http://www.w3.org/2000/svg" viewBox="0 0 426.33 426.33"><defs><style>.cls-1{fill:#004d96;}.cls-2{fill:#c6aa6f;}.cls-3{fill:#fff;}.cls-4{font-size:24.72px;font-family:DINPro, DIN Pro;}.cls-4,.cls-5{fill:#f5f5f5;}.cls-5{font-size:31.47px;font-family:DINPro-Bold, DIN Pro;font-weight:700;}.cls-6{letter-spacing:-0.01em;}.cls-7{letter-spacing:-0.04em;}</style></defs><g id="Livello_2" data-name="Livello 2"><g id="Livello_1-2" data-name="Livello 1"><circle class="cls-1" cx="213.16" cy="213.16" r="213.16"></circle><path class="cls-2" d="M139.71,255.78c-24.49.55-49,1.21-73.46,2.62,24.49,1.41,49,2.07,73.46,2.62,8.57.22,17.15.31,25.72.42v-6.08C156.86,255.47,148.28,255.56,139.71,255.78Z"></path><path class="cls-2" d="M323.34,256.72l-36.72-1c-8.58-.22-17.15-.31-25.73-.42v6.1c8.58-.11,17.15-.2,25.73-.42l36.72-.95c12.25-.57,24.49-.9,36.73-1.68C347.83,257.63,335.59,257.29,323.34,256.72Z"></path><path class="cls-3" d="M182.91,250.39v6h9.7v4.28h-9.7v10h-4.8V246.11h16.2v4.28Z"></path><path class="cls-3" d="M198.46,270.69V246.11h4.8v24.58Z"></path><path class="cls-3" d="M224.13,268.1a9.2,9.2,0,0,1-6.93,2.8,9,9,0,0,1-6.63-2.7,7.13,7.13,0,0,1-2-3.69,44.65,44.65,0,0,1,0-12.22,7,7,0,0,1,2-3.69,9,9,0,0,1,6.63-2.7,8.81,8.81,0,0,1,9.25,7.88h-4.84a4.17,4.17,0,0,0-4.41-3.6,3.88,3.88,0,0,0-3.07,1.32c-.9,1.13-1.18,2-1.18,6.9s.21,5.8,1.18,6.94a3.79,3.79,0,0,0,3.07,1.27,4.45,4.45,0,0,0,3.42-1.37,4.89,4.89,0,0,0,1.1-3.29V261H217.2v-4h9.28v3.59C226.48,264.2,225.83,266.3,224.13,268.1Z"></path><path class="cls-3" d="M239.17,270.9a9,9,0,0,1-6.63-2.7,7.13,7.13,0,0,1-2-3.69,44.65,44.65,0,0,1,0-12.22,7,7,0,0,1,2-3.69,9,9,0,0,1,6.63-2.7c4.73,0,8.22,2.77,9,7.77h-4.87c-.51-2.1-1.83-3.49-4.14-3.49a3.8,3.8,0,0,0-3.07,1.28c-1,1.07-1.21,2.18-1.21,6.94s.21,5.87,1.21,6.94a3.79,3.79,0,0,0,3.07,1.27,4,4,0,0,0,4.14-3.48h4.87C247.39,268.14,243.86,270.9,239.17,270.9Z"></path><text class="cls-4" transform="translate(157.58 312.52)">Sezione di</text><text class="cls-5" transform="translate(138.59 349.64)">PINE<tspan class="cls-6" x="70.77" y="0">R</tspan><tspan x="91.03" y="0">O</tspan><tspan class="cls-7" x="111.29" y="0">L</tspan><tspan x="128.28" y="0">O</tspan></text><path class="cls-3" d="M307.35,79.6Q294.87,77,282.4,75l-28.9,79.16h0a184.56,184.56,0,0,0-25.67-3.88V69.81c-4.88-.16-9.76-.26-14.64-.27h0c-4.87,0-9.75.11-14.64.27v80.48a184.89,184.89,0,0,0-25.69,3.9h0L143.93,75Q131.47,77,119,79.6l-52.73,145H96.79c61.08-71.52,171.62-71.52,232.7,0h30.58ZM111.7,180.53,132.63,120l14.25,42.15h0A178.62,178.62,0,0,0,111.7,180.53Zm202.35-.37a178.58,178.58,0,0,0-34-17.82l-.56-.23L293.7,120l20.93,60.58Z"></path><polygon class="cls-3" points="198.52 224.55 198.52 224.54 198.52 224.54 198.52 224.55"></polygon><path class="cls-3" d="M159.42,199.2,168,224.54h30.54l-12.91-35.36A113.76,113.76,0,0,0,159.42,199.2Z"></path><path class="cls-3" d="M227.8,224.54h30.54l8.57-25.34a113.93,113.93,0,0,0-26.19-10Z"></path><path class="cls-3" d="M198.52,186.77v37.77H227.8V186.77A115.7,115.7,0,0,0,198.52,186.77Z"></path></g></g></svg> 